<svg width="27" height="27" viewBox="0 0 27 27" fill="none" xmlns="http://www.w3.org/2000/svg">
<path d="M26.125 19.0557L26.125 19.0544L26.125 7.79505C26.125 7.79469 26.125 7.79434 26.125 7.79399L26.125 19.0557ZM26.125 19.0557C26.1266 19.9835 25.9452 20.9024 25.5913 21.7601C25.2373 22.6177 24.7178 23.3971 24.0623 24.0537C23.4068 24.7103 22.6283 25.2312 21.7713 25.5866C20.9143 25.9421 19.9956 26.125 19.0678 26.125H7.79524C5.9267 26.1183 4.13677 25.3722 2.81662 24.0498C1.49636 22.7273 0.753361 20.9359 0.75 19.0671V7.80787C0.753361 5.93915 1.49636 4.14775 2.81662 2.82521C4.13673 1.50283 5.92659 0.75676 7.79507 0.750012L26.125 19.0557Z" stroke="white" stroke-width="1.5"/>
<path d="M15.2443 13.5101L18.6534 10.1249C18.8787 9.89644 19.0033 9.58853 18.9999 9.26886C18.9965 8.94919 18.8654 8.64396 18.6354 8.4203C18.4053 8.19664 18.0953 8.07288 17.7733 8.07624C17.4514 8.07961 17.144 8.20982 16.9188 8.43824L13.5457 11.8234L10.1366 8.43824C9.94364 8.2043 9.66861 8.05162 9.36686 8.0109C9.0651 7.97018 8.75902 8.04446 8.51019 8.21878C8.26136 8.3931 8.08825 8.65453 8.02569 8.95047C7.96314 9.24641 8.01578 9.55489 8.17303 9.81385C8.25857 9.93469 8.36454 10.0399 8.48623 10.1249L11.8472 13.5101L8.48623 16.8953C8.28888 17.1241 8.18576 17.4184 8.19747 17.7195C8.20918 18.0205 8.33486 18.3061 8.5494 18.5192C8.76394 18.7322 9.05154 18.857 9.35472 18.8686C9.6579 18.8802 9.95433 18.7778 10.1848 18.5819L13.5457 15.1967L16.8706 18.5819C16.9786 18.7071 17.1115 18.8088 17.2609 18.8806C17.4104 18.9524 17.5731 18.9927 17.7391 18.9991C17.905 19.0055 18.0704 18.9777 18.225 18.9176C18.3796 18.8574 18.52 18.7662 18.6374 18.6496C18.7548 18.5331 18.8466 18.3937 18.9072 18.2402C18.9677 18.0867 18.9957 17.9224 18.9893 17.7576C18.9829 17.5929 18.9423 17.4313 18.8699 17.2829C18.7976 17.1345 18.6952 17.0025 18.5691 16.8953L15.2443 13.5101Z" fill="white"/>
</svg>
