<svg width="146" height="157" viewBox="0 0 146 157" fill="none" xmlns="http://www.w3.org/2000/svg">
<path d="M142.229 8.82885L137.179 3.7553C136.054 2.62518 134.546 2 132.943 2H30.242C28.6624 2 27.1306 2.62518 26.0057 3.7553L21.3625 8.42009C20.2377 9.55021 18.7059 10.1754 17.1262 10.1754H11.0231C9.49132 10.1754 8.00742 10.7765 6.88252 11.8345L3.86685 14.744C2.67015 15.8741 2 17.4611 2 19.0962V88.1061V90.5106V143.915C2 145.502 2.62228 147.041 3.74718 148.171L8.79724 153.245C9.92213 154.375 11.4539 155 13.0335 155H115.758C117.338 155 118.869 154.375 119.994 153.245L124.637 148.58C125.762 147.45 127.294 146.825 128.874 146.825H134.953C136.485 146.825 137.969 146.223 139.094 145.165L142.133 142.256C143.33 141.126 144 139.539 144 137.904V90.5347V88.1301V13.0849C144 11.4979 143.354 9.95898 142.229 8.82885Z" stroke="#F3BA2F" stroke-width="3" stroke-miterlimit="10"/>
<path d="M2 68L6.19689 64.1139C6.71503 63.6342 7 62.9865 7 62.2909V36.6207C7 35.2534 6.40415 33.934 5.36788 32.9745L2.15544 30L2 68Z" fill="#F3BA2F"/>
<path d="M31 155L35.1151 150.82C35.6396 150.287 36.3255 150 37.0517 150L96.98 150C98.4324 150 99.8445 150.574 100.853 151.639L104 154.836L31 155Z" fill="#F3BA2F"/>
</svg>
